# xmcd CD database file
#
# Track frame offsets:
#	150
#	4251
#	62775
#	94954
#	130089
#	154952
#	186974
#	212551
#	249526
#	253175
#	264074
#	284404
#	291900
#	328201
#
# Disc length: 4519 seconds
#
# Revision: 0
# Processed by: cddbd v1.5.2PL0 Copyright (c) Steve Scherf et al.
# Submitted via: CDex 1.51
#
DISCID=d711a50e
DTITLE=Stefan Heidtmann Quartett - get back... Beatles songs
DYEAR=1998
DGENRE=Jazz
TTITLE0=She's Leavin Home
TTITLE1=Hey Jude
TTITLE2=Come Together
TTITLE3=Fool On The Hill
TTITLE4=Get Back
TTITLE5=I Should Have Known Better
TTITLE6=Lucy In The Sky With Diamonds
TTITLE7=Yellow Submarine
TTITLE8=Eleanor Rigby I
TTITLE9=Eleanor Rigby II
TTITLE10=Strawberry Fields Forever
TTITLE11=With A Little Help From My Friends
TTITLE12=Across The Universe
TTITLE13=She's Leaving Home
EXTD=YEAR: 1998
EXTT0=
EXTT1=
EXTT2=
EXTT3=
EXTT4=
EXTT5=
EXTT6=
EXTT7=
EXTT8=
EXTT9=
EXTT10=
EXTT11=
EXTT12=
EXTT13=
PLAYORDER=
